<?xml version="1.0" standalone="no"?>
<!DOCTYPE svg PUBLIC "-//W3C//DTD SVG 20010904//EN"
 "http://www.w3.org/TR/2001/REC-SVG-20010904/DTD/svg10.dtd">
<svg version="1.0" xmlns="http://www.w3.org/2000/svg"
 width="1000.000000pt" height="1000.000000pt" viewBox="0 0 1000.000000 1000.000000"
 preserveAspectRatio="xMidYMid meet">
<metadata>
Created by potrace 1.14, written by Peter Selinger 2001-2017
</metadata>
<g transform="translate(0.000000,1000.000000) scale(0.100000,-0.100000)"
fill="#000000" stroke="none">
<path d="M4788 9985 c-2 -1 -55 -5 -118 -9 -63 -4 -128 -9 -145 -11 -16 -2
-59 -6 -95 -10 -36 -3 -76 -8 -90 -10 -14 -2 -45 -7 -70 -10 -25 -3 -52 -8
-60 -10 -8 -2 -35 -7 -60 -10 -25 -4 -99 -18 -165 -31 -520 -108 -1005 -292
-1469 -558 -126 -73 -376 -233 -426 -273 -8 -7 -55 -42 -105 -79 -99 -74 -229
-181 -315 -259 -65 -58 -337 -330 -396 -395 -185 -205 -410 -513 -560 -765
-32 -55 -67 -114 -77 -130 -46 -78 -190 -375 -245 -505 -51 -123 -172 -463
-187 -526 -2 -11 -18 -71 -35 -134 -31 -114 -55 -224 -76 -340 -4 -19 -8 -44
-11 -55 -2 -11 -6 -36 -9 -55 -3 -19 -9 -60 -14 -90 -5 -30 -12 -80 -15 -110
-3 -30 -7 -70 -10 -88 -5 -42 -15 -166 -21 -257 -4 -83 -4 -468 0 -540 8 -119
18 -242 21 -265 4 -26 15 -115 20 -160 5 -39 14 -96 37 -215 11 -60 22 -121
25 -135 2 -14 20 -88 39 -165 186 -750 546 -1445 1054 -2040 125 -147 420
-440 555 -553 435 -364 925 -658 1390 -836 39 -15 86 -33 105 -41 287 -117
826 -246 1175 -280 33 -4 71 -8 85 -10 155 -24 751 -25 960 -1 19 3 60 7 90
11 80 8 243 33 340 51 47 8 99 18 115 20 74 13 383 97 515 139 309 100 659
254 910 400 36 20 79 45 96 55 106 61 288 181 414 274 54 40 244 190 266 211
6 5 40 35 75 65 93 79 343 328 421 418 37 42 75 86 85 97 48 54 112 135 198
252 52 70 98 133 102 138 5 6 36 53 69 105 331 514 534 981 674 1555 39 159
83 384 94 480 3 28 8 70 11 95 3 25 7 59 10 75 2 17 7 71 10 120 4 50 8 110
10 135 5 59 5 479 0 550 -16 228 -23 297 -45 445 -23 152 -34 214 -55 313 -3
12 -7 32 -10 45 -48 228 -139 526 -237 772 -63 157 -204 455 -268 565 -21 36
-46 81 -57 100 -123 223 -395 597 -592 815 -104 115 -384 387 -491 477 -368
311 -746 548 -1205 758 -138 63 -342 139 -590 220 -28 9 -209 56 -248 65 -10
2 -27 7 -37 10 -10 3 -29 8 -42 10 -13 3 -48 10 -78 17 -30 6 -62 12 -70 13
-8 1 -53 9 -100 18 -93 18 -276 42 -385 52 -38 3 -90 8 -115 11 -46 6 -566 14
-572 9z m617 -39 c17 -2 62 -7 100 -11 159 -16 209 -23 387 -55 555 -101 1088
-295 1567 -570 170 -98 467 -294 561 -372 19 -16 40 -32 45 -36 135 -96 470
-412 650 -612 261 -290 526 -678 712 -1045 58 -114 164 -349 192 -425 8 -19
19 -48 26 -65 20 -45 113 -329 136 -415 12 -41 30 -109 40 -150 22 -85 71
-335 89 -455 7 -44 14 -88 15 -97 2 -9 6 -45 10 -80 3 -35 8 -81 10 -103 24
-241 24 -734 0 -920 -2 -16 -7 -57 -10 -90 -3 -33 -8 -73 -11 -90 -2 -16 -6
-47 -9 -67 -13 -111 -53 -312 -101 -507 -153 -622 -440 -1224 -838 -1761 -39
-52 -73 -97 -76 -100 -3 -3 -24 -27 -45 -55 -22 -27 -42 -52 -45 -55 -3 -3
-34 -39 -70 -80 -36 -41 -74 -84 -85 -96 -11 -12 -41 -43 -66 -70 -176 -186
-423 -403 -654 -574 -316 -232 -579 -383 -990 -565 -223 -99 -673 -243 -875
-281 -14 -2 -36 -7 -50 -10 -37 -9 -61 -14 -95 -19 -16 -3 -41 -7 -55 -10 -14
-3 -41 -7 -60 -10 -19 -3 -46 -8 -60 -10 -31 -6 -86 -13 -165 -21 -33 -3 -71
-7 -85 -10 -158 -25 -935 -25 -1013 1 -7 2 -37 6 -67 9 -52 5 -302 41 -345 50
-161 35 -225 49 -305 70 -143 37 -275 75 -310 89 -8 3 -42 14 -75 25 -428 143
-910 393 -1290 670 -83 60 -255 193 -281 217 -6 5 -38 32 -70 60 -61 51 -416
403 -469 465 -338 394 -612 815 -794 1223 -11 26 -30 66 -40 90 -84 187 -236
632 -257 757 -3 14 -9 39 -14 55 -9 30 -44 201 -55 265 -3 19 -10 58 -15 85
-5 28 -12 72 -15 98 -4 27 -8 56 -10 65 -1 10 -6 51 -10 92 -4 41 -8 89 -10
105 -23 184 -23 791 0 915 1 8 6 44 10 80 12 120 15 145 26 210 8 52 36 199
64 340 2 8 8 35 15 60 7 25 14 54 15 65 2 11 15 61 30 110 14 50 27 97 30 105
4 19 56 174 89 270 64 181 243 569 347 750 339 590 820 1134 1344 1520 55 41
102 78 103 82 2 4 7 8 12 8 4 0 57 33 116 74 457 309 1030 558 1589 691 130
31 134 32 205 45 30 5 67 12 83 15 54 10 83 15 127 20 25 3 55 8 66 10 12 3
50 7 85 11 35 3 75 7 89 10 14 2 70 7 125 10 55 4 102 8 104 10 5 5 641 -4
676 -10z"/>
<path d="M4768 9785 c-2 -2 -50 -6 -108 -10 -58 -4 -118 -8 -135 -11 -16 -2
-58 -6 -91 -9 -34 -3 -72 -8 -85 -10 -13 -3 -44 -8 -69 -11 -25 -3 -52 -7 -60
-9 -8 -2 -31 -7 -50 -10 -208 -33 -463 -98 -690 -176 -96 -33 -179 -61 -185
-63 -55 -17 -313 -131 -430 -189 -385 -193 -722 -422 -1063 -722 -57 -50 -292
-283 -354 -351 -366 -402 -701 -936 -893 -1427 -20 -50 -41 -103 -47 -117 -44
-106 -164 -511 -192 -651 -3 -13 -10 -49 -15 -79 -6 -30 -13 -66 -16 -80 -5
-25 -30 -186 -39 -250 -8 -57 -16 -134 -22 -217 -3 -43 -7 -96 -9 -118 -5 -51
-5 -517 0 -570 1 -22 6 -83 10 -135 4 -52 9 -97 10 -100 2 -3 6 -35 10 -70 5
-57 24 -180 40 -275 95 -538 311 -1105 616 -1614 217 -364 561 -780 885 -1071
101 -91 123 -110 250 -209 71 -56 134 -105 141 -111 30 -24 288 -194 382 -250
180 -108 507 -269 676 -332 132 -50 297 -107 365 -127 41 -12 86 -26 100 -31
57 -20 334 -83 465 -105 113 -19 177 -28 285 -41 25 -3 59 -7 77 -9 209 -25
742 -25 948 0 17 2 55 7 85 10 30 4 66 8 80 10 14 2 48 6 75 10 28 3 70 10 95
15 66 13 124 24 135 25 43 5 279 64 420 104 342 97 862 329 1135 505 158 103
227 149 305 205 327 234 673 563 919 871 38 47 77 95 87 108 37 43 187 262
254 368 244 388 431 814 554 1259 29 104 79 316 86 360 1 11 6 36 9 55 29 155
51 327 61 460 3 41 8 98 10 125 6 55 6 461 1 540 -11 166 -18 247 -21 267 -2
13 -9 60 -15 105 -17 130 -24 172 -40 253 -6 30 -13 71 -16 90 -3 19 -26 114
-50 210 -241 947 -775 1809 -1519 2449 -176 151 -543 421 -573 421 -6 0 -12 4
-14 8 -6 16 -239 146 -423 237 -316 156 -631 271 -965 353 -91 23 -178 44
-195 47 -46 8 -157 26 -190 31 -16 3 -40 7 -53 9 -21 5 -71 12 -146 20 -17 1
-56 6 -86 9 -146 16 -203 18 -447 21 -144 1 -264 1 -265 0z"/>
</g>
</svg>
